<?xml version="1.0" encoding="utf-8"?>
<!-- Generator: Adobe Illustrator 16.0.2, SVG Export Plug-In . SVG Version: 6.00 Build 0)  -->
<!DOCTYPE svg PUBLIC "-//W3C//DTD SVG 1.1//EN" "http://www.w3.org/Graphics/SVG/1.1/DTD/svg11.dtd">
<svg version="1.1" id="Layer_1" xmlns="http://www.w3.org/2000/svg" xmlns:xlink="http://www.w3.org/1999/xlink" x="0px" y="0px"
	 width="345.752px" height="140.386px" viewBox="412.181 180.835 345.752 140.386"
	 enable-background="new 412.181 180.835 345.752 140.386" xml:space="preserve">
<path fill="#FFFFFF" d="M494.814,213.505c-5.971-14.205-13.808-26.587-29.227-32.146c-5.79-0.809-7.207-0.707-12.332,0.5
	c-15.047,6.277-26.321,15.861-35.875,28.991c-0.459,0.835-0.459,0.835-0.792,1.788c6.899-2.524,15.572-5.175,23-4.87
	c13.681,0.563,22.657,7.674,28.774,18.75c9.33-2.758,18.525-5.84,27.273-10.24C495.512,215.422,495.236,214.508,494.814,213.505z"/>
<path fill="#FFFFFF" d="M512.601,200.489c0.365-3.205,1.847-5.059,4.798-5.004c2.631,0.048,4.335,1.72,4.385,4.356
	c0.056,2.931-1.712,4.666-4.645,4.667C514.421,204.51,513.201,202.605,512.601,200.489z"/>
<path fill="#10100F" d="M415.709,295.95"/>
<path fill="none" d="M452.078,259.976c-7.595,6.826-9.445,14.532-5.87,24.003c3.832,10.148,16.231,14.158,25.331,8.254
	c1.815-1.178,2.711-2.677,2.68-4.806c-0.028-1.943-0.02-3.888-0.021-5.832c-0.002-3.096-0.236-6.243-0.353-9.364h0v-0.01
	c-0.07-1.878-0.096-3.747,0-5.589v-19.263c-0.983,0.457-1.972,0.909-2.965,1.349C464.14,251.706,457.606,255.007,452.078,259.976z"
	/>
<path fill="#10100F" d="M473.844,272.221v-5.589C473.749,268.474,473.774,270.343,473.844,272.221z"/>
<path fill="#10100F" d="M473.845,272.23c0-0.003,0-0.007,0-0.01L473.845,272.23L473.845,272.23z"/>
<path fill="#10100F" d="M473.844,230.257v0.104c0.109-0.034,0.218-0.069,0.327-0.104H473.844z"/>
<path fill="#FFFFFF" d="M472.907,286.811c0.032,2.127-0.865,3.627-2.681,4.806c-9.098,5.904-21.498,1.895-25.329-8.254
	c-3.576-9.471-1.726-17.178,5.869-24.003c5.528-4.97,12.062-8.27,18.802-11.258c0.994-0.44,1.981-0.892,2.964-1.349
	c9.382-4.358,18.293-9.494,26.251-16.101c1.367-1.136,2.709-2.311,4.018-3.536c4.763-4.461,8.834-9.429,8.988-17.651
	c-5.534,4.664-11.393,8.351-17.465,11.406c-6.926,3.484-14.133,6.14-21.465,8.464c-0.109,0.035-0.218,0.07-0.327,0.104
	c-1.82,0.575-3.648,1.13-5.481,1.672c-3.979,1.176-7.982,2.295-11.984,3.433c-17.386,4.939-31.689,14.61-39.234,32.115
	c-1.156,2.686-2.342,4.589-2.958,8.056c-1.563,8.773,0,15.43,0,15.43l0.601,2.009c5.297,14.21,13.559,23.306,27.461,27.963
	c2.518,0.799,4.846,1.105,7.37,1.105c2.662,0,5.567-0.255,8.19-1.105c5.315-2.188,10.322-4.88,15.108-8.122
	c6.439-4.361,13.164-4.796,20.047-0.466c2.575,1.621,5.408,3.173,8.793,3.276c-1.83-12.894-1.845-25.727-1.69-38.593h0.029v-2.31
	c0.106-8.068,0.083-16.019,0-24.271v-14.382c-7.958,6.606-16.868,11.742-26.25,16.101v19.263"/>
<text transform="matrix(1 0 0 1 527.0977 237.2217)" fill="#FFFFFF" font-family="'CalistoMT'" font-size="67.4182" letter-spacing="3">Aghadi</text>
<text transform="matrix(1 0 0 1 527.0977 308.9307)" fill="#FFFFFF" font-family="'CalistoMT'" font-size="67.4182">infotech</text>
</svg>
